<?xml version="1.0" standalone="no"?>
<!DOCTYPE svg PUBLIC "-//W3C//DTD SVG 20010904//EN"
 "http://www.w3.org/TR/2001/REC-SVG-20010904/DTD/svg10.dtd">
<svg version="1.0" xmlns="http://www.w3.org/2000/svg"
 width="407.000000pt" height="307.000000pt" viewBox="0 0 407.000000 307.000000"
 preserveAspectRatio="xMidYMid meet">

<g transform="translate(0.000000,307.000000) scale(0.100000,-0.100000)"
fill="#456799" stroke="none">
<path d="M2308 2300 l3 -711 -35 -14 c-20 -8 -45 -15 -57 -15 -13 0 -36 -4
-53 -10 -17 -5 -65 -19 -106 -31 -112 -33 -230 -85 -333 -147 -51 -30 -94 -58
-97 -61 -18 -22 -73 -60 -81 -56 -4 3 -6 18 -3 33 l6 27 -204 18 c-112 10
-230 22 -263 27 -33 5 -105 12 -160 15 -55 3 -136 10 -180 15 -44 5 -161 17
-260 25 -99 9 -216 20 -260 25 -134 15 -205 21 -205 17 0 -3 256 -132 570
-288 313 -156 570 -287 570 -291 0 -9 -79 -60 -165 -108 -33 -18 -88 -51 -123
-72 -34 -21 -64 -38 -67 -38 -3 0 -44 -24 -92 -53 -49 -30 -137 -82 -198 -117
-60 -35 -141 -82 -180 -106 -87 -52 -172 -101 -205 -117 -14 -6 -27 -14 -30
-18 -3 -3 -14 -11 -25 -17 -25 -14 -9 -14 60 -1 28 5 95 16 150 25 55 8 125
20 155 24 192 31 245 40 335 54 55 9 129 21 165 26 36 6 106 17 155 25 50 8
135 21 190 30 55 9 125 20 155 25 30 4 66 11 80 14 20 5 35 -2 75 -35 212
-177 517 -287 890 -320 362 -32 751 33 1039 173 116 57 190 110 282 203 269
272 221 609 -122 857 -52 38 -184 108 -259 138 -11 4 -36 15 -57 24 -20 9 -45
16 -55 16 -10 0 -23 4 -28 8 -6 5 -46 16 -90 26 -44 10 -93 22 -108 27 -15 4
-62 11 -105 15 -121 11 -117 8 -167 134 -10 25 -23 59 -30 75 -7 17 -41 104
-75 195 -34 91 -68 179 -75 195 -7 17 -20 50 -30 75 -9 25 -21 54 -26 65 -5
11 -29 74 -54 140 -25 66 -49 129 -54 140 -5 11 -17 40 -26 65 -10 25 -23 59
-30 75 -20 49 -83 218 -90 243 -3 12 -9 22 -13 22 -4 0 -6 -320 -4 -710z
m1135 -999 c54 -25 82 -56 102 -111 14 -40 14 -48 -1 -92 -56 -169 -341 -183
-410 -19 -38 90 0 173 106 228 38 20 153 16 203 -6z"/>
</g>
</svg>
